{"title":"GTA V Trailer 720p [WEBSEED]","uid":6790888,"size":63467717,"categoryP":"video","categoryS":"other","magnet":"?xt=urn:btih:55cc23ce19a89abd41434487b61944edce63eb83&amp;dn=GTA+V+Trailer+720p+%5BWEBSEED%5D&amp;tr=udp%3A%2F%2Ftracker.openbittorrent.com%3A80&amp;tr=udp%3A%2F%2Fopen.demonii.com%3A1337&amp;tr=udp%3A%2F%2Ftracker.coppersurfer.tk%3A6969&amp;tr=udp%3A%2F%2Fexodus.desync.com%3A6969","seeders":0,"leechers":0,"uploader":"xiSpark","files":-1,"time":1320260019,"description":"General\nFormat                                   : Windows Media\nFile size                                : 60.5 MiB\nDuration                                 : 1mn 24s\nOverall bit rate mode                    : Variable\nOverall bit rate                         : 6 026 Kbps\nMaximum Overall bit rate                 : 6 240 Kbps\nEncoded date                             : UTC 2011-11-01 04:30:56.314\n\nVideo\nID                                       : 2\nFormat                                   : VC-1\nFormat profile                           : AP@L3\nCodec ID                                 : WVC1\nCodec ID/Hint                            : Microsoft\nDescription of the codec                 : Windows Media Video 9 Advanced Profile\nDuration                                 : 1mn 24s\nBit rate mode                            : Variable\nBit rate                                 : 6 000 Kbps\nWidth                                    : 1 280 pixels\nHeight                                   : 720 pixels\nDisplay aspect ratio                     : 16:9\nFrame rate                               : 29.970 fps\nChroma subsampling                       : 4:2:0\nBit depth                                : 8 bits\nScan type                                : Progressive\nCompression mode                         : Lossy\nBits/(Pixel*Frame)                       : 0.217\nStream size                              : 60.3 MiB (100%)\n\nAudio\nID                                       : 1\nFormat                                   : WMA\nFormat profile                           : Pro\nCodec ID                                 : 162\nCodec ID/Info                            : Windows Media Audio\nDescription of the codec                 : Windows Media Audio 10 Professional - 192 kbps, 48 kHz, 2 channel 16 bit 1-pass CBR\nDuration                                 : 1mn 24s\nBit rate mode                            : Constant\nBit rate                                 : 192 Kbps\nChannel(s)                               : 2 channels\nSampling rate                            : 48.0 KHz\nBit depth                                : 16 bits\nStream size                              : 1.93 MiB (3%)\n\nHAS WEBSEED DIRECT FROM ROCKSTAR!!!!!!!!!!","torrent":{"xt":"urn:btih:55cc23ce19a89abd41434487b61944edce63eb83","amp;dn":"GTA+V+Trailer+720p+%5BWEBSEED%5D","amp;tr":["udp%3A%2F%2Ftracker.openbittorrent.com%3A80","udp%3A%2F%2Fopen.demonii.com%3A1337","udp%3A%2F%2Ftracker.coppersurfer.tk%3A6969","udp%3A%2F%2Fexodus.desync.com%3A6969"],"infoHash":"55cc23ce19a89abd41434487b61944edce63eb83","infoHashBuffer":{"type":"Buffer","data":[85,204,35,206,25,168,154,189,65,67,68,135,182,25,68,237,206,99,235,131]},"announce":[],"urlList":[]}}